<svg version="1.1" viewBox="0.0 0.0 1280.0 960.0" fill="none" stroke="none" stroke-linecap="square" stroke-miterlimit="10" xmlns:xlink="http://www.w3.org/1999/xlink" xmlns="http://www.w3.org/2000/svg"><clipPath id="p.0"><path d="m0 0l1280.0 0l0 960.0l-1280.0 0l0 -960.0z" clip-rule="nonzero"/></clipPath><g clip-path="url(#p.0)"><path fill="#000000" fill-opacity="0.0" d="m0 0l1280.0 0l0 960.0l-1280.0 0z" fill-rule="evenodd"/><defs><radialGradient id="p.1" gradientUnits="userSpaceOnUse" gradientTransform="matrix(25.270513158656616 0.0 0.0 25.270513158656616 0.0 0.0)" spreadMethod="pad" cx="25.32595978490302" cy="17.03955999996563" fx="25.32595978490302" fy="17.03955999996563" r="25.2705135345459"><stop offset="0.0" stop-color="#3177ee"/><stop offset="1.0" stop-color="#113d8a"/></radialGradient></defs><path fill="url(#p.1)" d="m15.433071 341.8434l0 0c0 -24.509766 19.869083 -44.378845 44.37884 -44.378845l1160.3762 0c11.77002 0 23.057861 4.675598 31.380615 12.9982605c8.322632 8.322632 12.998169 19.610565 12.998169 31.380585l0 177.51004c0 24.509766 -19.869019 44.378845 -44.378784 44.378845l-1160.3762 0c-24.509758 0 -44.37884 -19.86908 -44.37884 -44.378845z" fill-rule="evenodd"/><path stroke="#6fa8dc" stroke-width="24.0" stroke-linejoin="round" stroke-linecap="butt" d="m15.433071 341.8434l0 0c0 -24.509766 19.869083 -44.378845 44.37884 -44.378845l1160.3762 0c11.77002 0 23.057861 4.675598 31.380615 12.9982605c8.322632 8.322632 12.998169 19.610565 12.998169 31.380585l0 177.51004c0 24.509766 -19.869019 44.378845 -44.378784 44.378845l-1160.3762 0c-24.509758 0 -44.37884 -19.86908 -44.37884 -44.378845z" fill-rule="evenodd"/><path fill="#ffffff" d="m80.6323 460.4584l0 -57.859375l26.03125 0q5.53125 0 10.03125 2.40625q4.515625 2.390625 7.078125 6.5625q2.5625 4.171875 2.5625 9.46875q0 5.453125 -2.5625 9.796875q-2.5625 4.328125 -7.03125 6.8125q-4.453125 2.484375 -10.078125 2.484375l-12.65625 0l0 20.328125l-13.375 0zm32.0625 0l-14.71875 -26.125l14.390625 -2.0625l16.359367 28.1875l-16.031242 0zm-18.6875 -31.078125l11.421875 0q2.140625 0 3.75 -0.953125q1.609375 -0.953125 2.46875 -2.6875q0.875 -1.734375 0.875 -3.96875q0 -2.234375 -1.0 -3.921875q-0.984375 -1.6875 -2.84375 -2.59375q-1.859375 -0.921875 -4.5 -0.921875l-10.171875 0l0 15.046875zm62.49627 31.90625q-7.28125 0 -12.65625 -2.9375q-5.359375 -2.9375 -8.34375 -8.015625q-2.96875 -5.078125 -2.96875 -11.609375q0 -5.046875 1.640625 -9.265625q1.65625 -4.21875 4.625 -7.3125q2.984375 -3.09375 7.078125 -4.78125q4.09375 -1.703125 8.96875 -1.703125q4.625 0 8.46875 1.65625q3.84375 1.640625 6.65625 4.625q2.8125 2.96875 4.296875 7.03125q1.5 4.046875 1.328125 8.84375l-0.078125 3.546875l-34.96875 0l-1.90625 -7.4375l26.125 0l-1.40625 1.5625l0 -1.640625q-0.171875 -2.078125 -1.28125 -3.6875q-1.109375 -1.609375 -2.9375 -2.515625q-1.8125 -0.90625 -4.125 -0.90625q-3.234375 0 -5.515625 1.28125q-2.265625 1.28125 -3.421875 3.71875q-1.15625 2.4375 -1.15625 5.984375q0 3.640625 1.53125 6.328125q1.53125 2.6875 4.46875 4.171875q2.9375 1.484375 6.984375 1.484375q2.8125 0 5.0 -0.8125q2.1875 -0.828125 4.75 -2.8125l6.203125 8.75q-2.5625 2.234375 -5.453125 3.640625q-2.890625 1.40625 -5.921875 2.109375q-3.015625 0.703125 -5.984375 0.703125zm42.31151 0q-6.4375 0 -11.359375 -2.0625q-4.921875 -2.078125 -7.8125 -5.546875l8.015625 -6.9375q2.5625 2.5625 5.78125 3.765625q3.234375 1.1875 6.125 1.1875q1.15625 0 2.0625 -0.234375q0.921875 -0.25 1.53125 -0.703125q0.625 -0.46875 0.953125 -1.078125q0.328125 -0.625 0.328125 -1.453125q0 -1.65625 -1.484375 -2.5625q-0.75 -0.40625 -2.484375 -0.984375q-1.734375 -0.578125 -4.453125 -1.328125q-3.890625 -1.0 -6.75 -2.359375q-2.84375 -1.359375 -4.65625 -3.171875q-1.65625 -1.75 -2.578125 -3.84375q-0.90625 -2.109375 -0.90625 -4.765625q0 -3.046875 1.453125 -5.53125q1.453125 -2.484375 3.890625 -4.296875q2.4375 -1.828125 5.609375 -2.765625q3.1875 -0.953125 6.578125 -0.953125q3.640625 0 6.9375 0.828125q3.3125 0.828125 6.15625 2.3125q2.859375 1.484375 5.09375 3.546875l-6.953125 7.78125q-1.484375 -1.40625 -3.34375 -2.515625q-1.859375 -1.125 -3.84375 -1.78125q-1.984375 -0.671875 -3.640625 -0.671875q-1.234375 0 -2.1875 0.21875q-0.953125 0.203125 -1.609375 0.65625q-0.65625 0.453125 -1.0 1.078125q-0.328125 0.609375 -0.328125 1.4375q0 0.828125 0.453125 1.578125q0.46875 0.734375 1.28125 1.234375q0.828125 0.5 2.640625 1.125q1.828125 0.609375 4.96875 1.515625q3.890625 1.078125 6.703125 2.40625q2.8125 1.3125 4.453125 3.140625q1.328125 1.40625 1.984375 3.265625q0.671875 1.859375 0.671875 4.0q0 4.21875 -2.359375 7.484375q-2.359375 3.265625 -6.5 5.125q-4.125 1.859375 -9.421875 1.859375zm46.789795 0q-6.859375 0 -12.1875 -2.96875q-5.328125 -2.984375 -8.4375 -8.109375q-3.09375 -5.125 -3.09375 -11.734375q0 -6.609375 3.09375 -11.734375q3.109375 -5.125 8.4375 -8.09375q5.328125 -2.984375 12.1875 -2.984375q6.859375 0 12.187515 2.984375q5.34375 2.96875 8.390625 8.09375q3.0625 5.125 3.0625 11.734375q0 6.609375 -3.0625 11.734375q-3.046875 5.125 -8.390625 8.109375q-5.3281403 2.96875 -12.187515 2.96875zm0 -11.40625q2.984375 0 5.296875 -1.484375q2.3125 -1.5 3.625 -4.0625q1.328125 -2.5625 1.25 -5.859375q0.078125 -3.3125 -1.25 -5.90625q-1.3125 -2.609375 -3.625 -4.09375q-2.3125 -1.484375 -5.296875 -1.484375q-2.96875 0 -5.328125 1.484375q-2.359375 1.484375 -3.6875 4.09375q-1.3125 2.59375 -1.234375 5.90625q-0.078125 3.296875 1.234375 5.859375q1.328125 2.5625 3.6875 4.0625q2.359375 1.484375 5.328125 1.484375zm47.279465 11.484375q-4.875 0 -8.3125 -2.109375q-3.421875 -2.109375 -5.28125 -6.0625q-1.859375 -3.96875 -1.859375 -9.515625l0 -27.109375l13.3125 0l0 25.296875q0 2.640625 0.8125 4.546875q0.828125 1.890625 2.484375 2.9375q1.65625 1.03125 3.96875 1.03125q1.734375 0 3.171875 -0.578125q1.453125 -0.578125 2.484375 -1.609375q1.046875 -1.046875 1.625 -2.40625q0.578125 -1.359375 0.578125 -3.015625l0 -26.203125l13.296875 0l0 43.890625l-12.46875 0l-0.59375 -9.015625l2.484375 -0.984375q-0.984375 3.140625 -3.3125 5.578125q-2.3125 2.4375 -5.53125 3.890625q-3.21875 1.4375 -6.859375 1.4375zm38.11212 -0.90625l0 -43.890625l12.5625 0l0.578125 14.296875l-2.484375 -2.71875q0.984375 -3.5625 3.25 -6.375q2.28125 -2.8125 5.34375 -4.453125q3.0625 -1.65625 6.53125 -1.65625q1.484375 0 2.765625 0.25q1.28125 0.25 2.359375 0.578125l-3.640625 14.625q-0.90625 -0.578125 -2.4375 -0.953125q-1.53125 -0.375 -3.171875 -0.375q-1.828125 0 -3.40625 0.625q-1.5625 0.625 -2.640625 1.78125q-1.0625 1.15625 -1.6875 2.734375q-0.625 1.5625 -0.625 3.546875l0 21.984375l-13.296875 0zm55.039886 0.828125q-6.359375 0 -11.40625 -2.96875q-5.046875 -2.984375 -7.984375 -8.140625q-2.921875 -5.171875 -2.921875 -11.703125q0 -6.53125 2.921875 -11.6875q2.9375 -5.171875 7.984375 -8.140625q5.046875 -2.984375 11.40625 -2.984375q5.875 0 10.78125 2.0625q4.921875 2.0625 7.8125 5.78125l-7.1875 8.609375q-1.15625 -1.328125 -2.734375 -2.484375q-1.5625 -1.15625 -3.46875 -1.8125q-1.890625 -0.671875 -3.953125 -0.671875q-3.15625 0 -5.546875 1.453125q-2.390625 1.4375 -3.71875 4.0q-1.328125 2.5625 -1.328125 5.875q0 3.140625 1.359375 5.703125q1.375 2.5625 3.765625 4.046875q2.40625 1.484375 5.46875 1.484375q2.140625 0 3.953125 -0.53125q1.828125 -0.53125 3.359375 -1.609375q1.53125 -1.078125 2.84375 -2.65625l7.109375 8.6875q-2.8125 3.546875 -7.8125 5.625q-5.0 2.0625 -10.703125 2.0625zm46.703857 0q-7.28125 0 -12.65625 -2.9375q-5.359375 -2.9375 -8.34375 -8.015625q-2.96875 -5.078125 -2.96875 -11.609375q0 -5.046875 1.640625 -9.265625q1.65625 -4.21875 4.625 -7.3125q2.984375 -3.09375 7.078125 -4.78125q4.09375 -1.703125 8.96875 -1.703125q4.625 0 8.46875 1.65625q3.84375 1.640625 6.65625 4.625q2.8125 2.96875 4.296875 7.03125q1.5 4.046875 1.328125 8.84375l-0.078125 3.546875l-34.96875 0l-1.90625 -7.4375l26.125 0l-1.40625 1.5625l0 -1.640625q-0.171875 -2.078125 -1.28125 -3.6875q-1.109375 -1.609375 -2.9375 -2.515625q-1.8125 -0.90625 -4.125 -0.90625q-3.234375 0 -5.515625 1.28125q-2.265625 1.28125 -3.421875 3.71875q-1.15625 2.4375 -1.15625 5.984375q0 3.640625 1.53125 6.328125q1.53125 2.6875 4.46875 4.171875q2.9375 1.484375 6.984375 1.484375q2.8125 0 5.0 -0.8125q2.1875 -0.828125 4.75 -2.8125l6.203125 8.75q-2.5625 2.234375 -5.453125 3.640625q-2.890625 1.40625 -5.921875 2.109375q-3.015625 0.703125 -5.984375 0.703125zm74.55835 0q-5.703125 0 -10.296875 -1.359375q-4.578125 -1.375 -8.140625 -3.96875q-3.546875 -2.609375 -6.359375 -6.15625l8.515625 -9.671875q4.125 5.53125 8.296875 7.4375q4.171875 1.890625 8.640625 1.890625q2.234375 0 4.0469055 -0.578125q1.828125 -0.578125 2.8125 -1.6875q1.0 -1.109375 1.0 -2.765625q0 -1.25 -0.625 -2.234375q-0.625 -1.0 -1.703125 -1.734375q-1.0625 -0.75 -2.5625305 -1.359375q-1.484375 -0.625 -3.140625 -1.078125q-1.640625 -0.453125 -3.375 -0.78125q-4.796875 -1.078125 -8.359375 -2.640625q-3.546875 -1.578125 -5.90625 -3.84375q-2.359375 -2.28125 -3.515625 -5.21875q-1.15625 -2.9375 -1.15625 -6.578125q0 -3.875 1.78125 -7.140625q1.78125 -3.265625 4.796875 -5.625q3.015625 -2.359375 6.984375 -3.640625q3.96875 -1.28125 8.265625 -1.28125q5.7031555 0 9.7969055 1.203125q4.09375 1.203125 7.015625 3.4375q2.9375 2.21875 5.0 5.359375l-8.671875 8.359375q-1.734375 -2.15625 -3.765625 -3.5625q-2.015625 -1.40625 -4.296875 -2.140625q-2.2656555 -0.75 -4.6719055 -0.75q-2.46875 0 -4.25 0.625q-1.78125 0.609375 -2.78125 1.734375q-0.984375 1.109375 -0.984375 2.6875q0 1.40625 0.828125 2.40625q0.828125 0.984375 2.234375 1.765625q1.40625 0.78125 3.21875 1.328125q1.828125 0.53125 3.796875 0.859375q4.5469055 0.90625 8.2187805 2.40625q3.6875 1.484375 6.375 3.640625q2.6875 2.140625 4.125 5.078125q1.453125 2.921875 1.453125 6.8125q0 6.03125 -2.9375 10.21875q-2.921875 4.171875 -8.015625 6.359375q-5.078125 2.1875 -11.6875305 2.1875zm46.779022 0.078125q-4.875 0 -8.3125 -2.109375q-3.421875 -2.109375 -5.28125 -6.0625q-1.859375 -3.96875 -1.859375 -9.515625l0 -27.109375l13.3125 0l0 25.296875q0 2.640625 0.8125 4.546875q0.828125 1.890625 2.484375 2.9375q1.65625 1.03125 3.96875 1.03125q1.734375 0 3.171875 -0.578125q1.453125 -0.578125 2.484375 -1.609375q1.046875 -1.046875 1.625 -2.40625q0.578125 -1.359375 0.578125 -3.015625l0 -26.203125l13.296875 0l0 43.890625l-12.46875 0l-0.59375 -9.015625l2.484375 -0.984375q-0.984375 3.140625 -3.3125 5.578125q-2.3125 2.4375 -5.53125 3.890625q-3.21875 1.4375 -6.859375 1.4375zm64.4715 0q-2.96875 0 -5.703125 -0.828125q-2.71875 -0.828125 -4.921875 -2.21875q-2.1875 -1.40625 -3.640625 -3.265625q-1.4375 -1.875 -1.9375 -3.84375l2.890625 -1.0l-0.734375 10.171875l-12.3125 0l0 -61.09375l13.296875 0l0 27.78125l-2.71875 -1.0q0.484375 -2.140625 1.890625 -4.0q1.40625 -1.859375 3.546875 -3.296875q2.15625 -1.453125 4.71875 -2.28125q2.5625 -0.828125 5.296875 -0.828125q5.703125 0 10.125 2.9375q4.421875 2.921875 6.984375 8.09375q2.5625 5.171875 2.5625 11.78125q0 6.6875 -2.53125 11.859375q-2.515625 5.171875 -6.890625 8.109375q-4.375 2.921875 -9.921875 2.921875zm-3.46875 -11.15625q2.96875 0 5.203125 -1.484375q2.234375 -1.484375 3.421875 -4.09375q1.203125 -2.609375 1.203125 -6.15625q0 -3.46875 -1.203125 -6.109375q-1.1875 -2.65625 -3.421875 -4.0625q-2.234375 -1.40625 -5.203125 -1.40625q-3.0625 0 -5.296875 1.40625q-2.21875 1.40625 -3.46875 4.0625q-1.234375 2.640625 -1.234375 6.109375q0 3.546875 1.234375 6.15625q1.25 2.609375 3.46875 4.09375q2.234375 1.484375 5.296875 1.484375zm31.403381 10.25l0 -43.890625l12.5625 0l0.421875 7.9375l-1.734375 0.078125q0.984375 -2.140625 2.515625 -3.796875q1.53125 -1.65625 3.46875 -2.765625q1.953125 -1.125 4.046875 -1.703125q2.109375 -0.578125 4.265625 -0.578125q3.21875 0 5.859375 1.0q2.65625 0.984375 4.640625 3.171875q1.984375 2.1875 3.140625 5.90625l-2.0625 -0.15625l0.65625 -1.328125q1.078125 -1.984375 2.765625 -3.59375q1.6875 -1.609375 3.75 -2.71875q2.078125 -1.125 4.3125 -1.703125q2.234375 -0.578125 4.296875 -0.578125q5.203125 0 8.671875 2.03125q3.484375 2.015625 5.25 6.078125q1.78125 4.046875 1.78125 9.828125l0 26.78125l-13.3125 0l0 -25.703125q0 -2.640625 -0.75 -4.375q-0.734375 -1.75 -2.1875 -2.609375q-1.4375 -0.875 -3.59375 -0.875q-1.734375 0 -3.1875 0.578125q-1.4375 0.578125 -2.46875 1.578125q-1.03125 0.984375 -1.609375 2.3125q-0.578125 1.328125 -0.578125 2.96875l0 26.125l-13.3125 0l0 -25.78125q0 -2.484375 -0.75 -4.21875q-0.734375 -1.734375 -2.234375 -2.640625q-1.484375 -0.921875 -3.453125 -0.921875q-1.75 0 -3.203125 0.578125q-1.4375 0.578125 -2.46875 1.578125q-1.03125 0.984375 -1.609375 2.3125q-0.578125 1.328125 -0.578125 2.890625l0 26.203125l-13.3125 0zm80.34332 0l0 -43.890625l13.234375 0l0 43.890625l-13.234375 0zm6.609375 -52.5625q-3.71875 0 -5.828125 -1.78125q-2.09375 -1.78125 -2.09375 -5.09375q0 -2.96875 2.140625 -4.859375q2.15625 -1.90625 5.78125 -1.90625q3.71875 0 5.78125 1.78125q2.078125 1.765625 2.078125 4.984375q0 3.0625 -2.109375 4.96875q-2.109375 1.90625 -5.75 1.90625zm33.80481 53.390625q-6.4375 0 -11.359375 -2.0625q-4.921875 -2.078125 -7.8125 -5.546875l8.015625 -6.9375q2.5625 2.5625 5.78125 3.765625q3.234375 1.1875 6.125 1.1875q1.15625 0 2.0625 -0.234375q0.921875 -0.25 1.53125 -0.703125q0.625 -0.46875 0.953125 -1.078125q0.328125 -0.625 0.328125 -1.453125q0 -1.65625 -1.484375 -2.5625q-0.75 -0.40625 -2.484375 -0.984375q-1.734375 -0.578125 -4.453125 -1.328125q-3.890625 -1.0 -6.75 -2.359375q-2.84375 -1.359375 -4.65625 -3.171875q-1.65625 -1.75 -2.578125 -3.84375q-0.90625 -2.109375 -0.90625 -4.765625q0 -3.046875 1.453125 -5.53125q1.453125 -2.484375 3.890625 -4.296875q2.4375 -1.828125 5.609375 -2.765625q3.1875 -0.953125 6.578125 -0.953125q3.640625 0 6.9375 0.828125q3.3125 0.828125 6.15625 2.3125q2.859375 1.484375 5.09375 3.546875l-6.953125 7.78125q-1.484375 -1.40625 -3.34375 -2.515625q-1.859375 -1.125 -3.84375 -1.78125q-1.984375 -0.671875 -3.640625 -0.671875q-1.234375 0 -2.1875 0.21875q-0.953125 0.203125 -1.609375 0.65625q-0.65625 0.453125 -1.0 1.078125q-0.328125 0.609375 -0.328125 1.4375q0 0.828125 0.453125 1.578125q0.46875 0.734375 1.28125 1.234375q0.828125 0.5 2.640625 1.125q1.828125 0.609375 4.96875 1.515625q3.890625 1.078125 6.703125 2.40625q2.8125 1.3125 4.453125 3.140625q1.328125 1.40625 1.984375 3.265625q0.671875 1.859375 0.671875 4.0q0 4.21875 -2.359375 7.484375q-2.359375 3.265625 -6.5 5.125q-4.125 1.859375 -9.421875 1.859375zm40.914795 0q-6.4375 0 -11.359375 -2.0625q-4.921875 -2.078125 -7.8125 -5.546875l8.015625 -6.9375q2.5625 2.5625 5.78125 3.765625q3.234375 1.1875 6.125 1.1875q1.15625 0 2.0625 -0.234375q0.921875 -0.25 1.53125 -0.703125q0.625 -0.46875 0.953125 -1.078125q0.328125 -0.625 0.328125 -1.453125q0 -1.65625 -1.484375 -2.5625q-0.75 -0.40625 -2.484375 -0.984375q-1.734375 -0.578125 -4.453125 -1.328125q-3.890625 -1.0 -6.75 -2.359375q-2.84375 -1.359375 -4.65625 -3.171875q-1.65625 -1.75 -2.578125 -3.84375q-0.90625 -2.109375 -0.90625 -4.765625q0 -3.046875 1.453125 -5.53125q1.453125 -2.484375 3.890625 -4.296875q2.4375 -1.828125 5.609375 -2.765625q3.1875 -0.953125 6.578125 -0.953125q3.640625 0 6.9375 0.828125q3.3125 0.828125 6.15625 2.3125q2.859375 1.484375 5.09375 3.546875l-6.953125 7.78125q-1.484375 -1.40625 -3.34375 -2.515625q-1.859375 -1.125 -3.84375 -1.78125q-1.984375 -0.671875 -3.640625 -0.671875q-1.234375 0 -2.1875 0.21875q-0.953125 0.203125 -1.609375 0.65625q-0.65625 0.453125 -1.0 1.078125q-0.328125 0.609375 -0.328125 1.4375q0 0.828125 0.453125 1.578125q0.46875 0.734375 1.28125 1.234375q0.828125 0.5 2.640625 1.125q1.828125 0.609375 4.96875 1.515625q3.890625 1.078125 6.703125 2.40625q2.8125 1.3125 4.453125 3.140625q1.328125 1.40625 1.984375 3.265625q0.671875 1.859375 0.671875 4.0q0 4.21875 -2.359375 7.484375q-2.359375 3.265625 -6.5 5.125q-4.125 1.859375 -9.421875 1.859375zm26.86792 -0.828125l0 -43.890625l13.234375 0l0 43.890625l-13.234375 0zm6.609375 -52.5625q-3.71875 0 -5.828125 -1.78125q-2.09375 -1.78125 -2.09375 -5.09375q0 -2.96875 2.140625 -4.859375q2.15625 -1.90625 5.78125 -1.90625q3.71875 0 5.78125 1.78125q2.078125 1.765625 2.078125 4.984375q0 3.0625 -2.109375 4.96875q-2.109375 1.90625 -5.75 1.90625zm39.67981 53.390625q-6.859375 0 -12.1875 -2.96875q-5.328125 -2.984375 -8.4375 -8.109375q-3.09375 -5.125 -3.09375 -11.734375q0 -6.609375 3.09375 -11.734375q3.109375 -5.125 8.4375 -8.09375q5.328125 -2.984375 12.1875 -2.984375q6.859375 0 12.1875 2.984375q5.34375 2.96875 8.390625 8.09375q3.0625 5.125 3.0625 11.734375q0 6.609375 -3.0625 11.734375q-3.046875 5.125 -8.390625 8.109375q-5.328125 2.96875 -12.1875 2.96875zm0 -11.40625q2.984375 0 5.296875 -1.484375q2.3125 -1.5 3.625 -4.0625q1.328125 -2.5625 1.25 -5.859375q0.078125 -3.3125 -1.25 -5.90625q-1.3125 -2.609375 -3.625 -4.09375q-2.3125 -1.484375 -5.296875 -1.484375q-2.96875 0 -5.328125 1.484375q-2.359375 1.484375 -3.6875 4.09375q-1.3125 2.59375 -1.234375 5.90625q-0.078125 3.296875 1.234375 5.859375q1.328125 2.5625 3.6875 4.0625q2.359375 1.484375 5.328125 1.484375zm32.326355 10.578125l0 -43.890625l12.5625 0l0.40625 8.921875l-2.640625 1.0q0.90625 -2.984375 3.265625 -5.421875q2.359375 -2.4375 5.65625 -3.921875q3.3125 -1.484375 6.953125 -1.484375q4.953125 0 8.34375 2.03125q3.390625 2.015625 5.125 6.03125q1.734375 4.0 1.734375 9.78125l0 26.953125l-13.3125 0l0 -25.875q0 -2.640625 -0.75 -4.375q-0.734375 -1.734375 -2.265625 -2.59375q-1.53125 -0.875 -3.765625 -0.796875q-1.734375 0 -3.21875 0.546875q-1.484375 0.53125 -2.5625 1.5625q-1.078125 1.03125 -1.703125 2.359375q-0.609375 1.3125 -0.609375 2.890625l0 26.28125l-6.53125 0q-2.3125 0 -3.96875 0q-1.65625 0 -2.71875 0zm80.342834 0l0 -57.859375l14.046875 0l0 57.859375l-14.046875 0zm6.515625 -22.15625l0 -11.734375l29.921875 0l0 11.734375l-29.921875 0zm0 -23.296875l0 -12.40625l33.3125 0l0 12.40625l-33.3125 0zm62.575806 46.28125q-6.859375 0 -12.1875 -2.96875q-5.328125 -2.984375 -8.4375 -8.109375q-3.09375 -5.125 -3.09375 -11.734375q0 -6.609375 3.09375 -11.734375q3.109375 -5.125 8.4375 -8.09375q5.328125 -2.984375 12.1875 -2.984375q6.859375 0 12.1875 2.984375q5.34375 2.96875 8.390625 8.09375q3.0625 5.125 3.0625 11.734375q0 6.609375 -3.0625 11.734375q-3.046875 5.125 -8.390625 8.109375q-5.328125 2.96875 -12.1875 2.96875zm0 -11.40625q2.984375 0 5.296875 -1.484375q2.3125 -1.5 3.625 -4.0625q1.328125 -2.5625 1.25 -5.859375q0.078125 -3.3125 -1.25 -5.90625q-1.3125 -2.609375 -3.625 -4.09375q-2.3125 -1.484375 -5.296875 -1.484375q-2.96875 0 -5.328125 1.484375q-2.359375 1.484375 -3.6875 4.09375q-1.3125 2.59375 -1.234375 5.90625q-0.078125 3.296875 1.234375 5.859375q1.328125 2.5625 3.6875 4.0625q2.359375 1.484375 5.328125 1.484375zm32.326416 10.578125l0 -43.890625l12.5625 0l0.578125 14.296875l-2.484375 -2.71875q0.984375 -3.5625 3.25 -6.375q2.28125 -2.8125 5.34375 -4.453125q3.0625 -1.65625 6.53125 -1.65625q1.484375 0 2.765625 0.25q1.28125 0.25 2.359375 0.578125l-3.640625 14.625q-0.90625 -0.578125 -2.4375 -0.953125q-1.53125 -0.375 -3.171875 -0.375q-1.828125 0 -3.40625 0.625q-1.5625 0.625 -2.640625 1.78125q-1.0625 1.15625 -1.6875 2.734375q-0.625 1.5625 -0.625 3.546875l0 21.984375l-13.296875 0zm37.51465 0l0 -43.890625l12.5625 0l0.421875 7.9375l-1.734375 0.078125q0.984375 -2.140625 2.515625 -3.796875q1.53125 -1.65625 3.46875 -2.765625q1.953125 -1.125 4.046875 -1.703125q2.109375 -0.578125 4.265625 -0.578125q3.21875 0 5.859375 1.0q2.65625 0.984375 4.640625 3.171875q1.984375 2.1875 3.140625 5.90625l-2.0625 -0.15625l0.65625 -1.328125q1.078125 -1.984375 2.765625 -3.59375q1.6875 -1.609375 3.75 -2.71875q2.078125 -1.125 4.3125 -1.703125q2.234375 -0.578125 4.296875 -0.578125q5.203125 0 8.671875 2.03125q3.484375 2.015625 5.25 6.078125q1.78125 4.046875 1.78125 9.828125l0 26.78125l-13.3125 0l0 -25.703125q0 -2.640625 -0.75 -4.375q-0.734375 -1.75 -2.1875 -2.609375q-1.4375 -0.875 -3.59375 -0.875q-1.734375 0 -3.1875 0.578125q-1.4375 0.578125 -2.46875 1.578125q-1.03125 0.984375 -1.609375 2.3125q-0.578125 1.328125 -0.578125 2.96875l0 26.125l-13.3125 0l0 -25.78125q0 -2.484375 -0.75 -4.21875q-0.734375 -1.734375 -2.234375 -2.640625q-1.484375 -0.921875 -3.453125 -0.921875q-1.75 0 -3.203125 0.578125q-1.4375 0.578125 -2.46875 1.578125q-1.03125 0.984375 -1.609375 2.3125q-0.578125 1.328125 -0.578125 2.890625l0 26.203125l-13.3125 0z" fill-rule="nonzero"/></g></svg>